<svg width="18" height="11" viewBox="0 0 18 11" version="1.1" xmlns="http://www.w3.org/2000/svg" xmlns:xlink="http://www.w3.org/1999/xlink">
<g id="Vector">
  <mask id="path-1-inside-1" fill="white">
    <path d="M 8.99999 11C 5.2268 11 2.07216 8.29711 0.463918 6.66283C -0.154639 6.03425 -0.154639 4.96571 0.463918 4.33714C 2.07216 2.70286 5.2268 -1.5346e-05 8.99999 -1.5346e-05C 12.7732 -1.5346e-05 15.9278 2.70286 17.5361 4.33714C 18.1546 4.96571 18.1546 6.03425 17.5361 6.66283C 15.9278 8.29711 12.7732 11 8.99999 11ZM 8.99999 0.942842C 5.41236 0.942842 2.38145 3.77143 1.20619 4.96571C 0.896915 5.28 0.896915 5.65716 1.20619 5.84573C 2.38145 7.04002 5.47422 9.8686 8.99999 9.8686C 12.5258 9.8686 15.6186 7.04002 16.7938 5.84573C 17.1031 5.53144 17.1031 5.15429 16.7938 4.96571C 15.6804 3.77143 12.5876 0.942842 8.99999 0.942842Z"/>
  </mask>
  <path d="M 8.99999 11C 5.2268 11 2.07216 8.29711 0.463918 6.66283C -0.154639 6.03425 -0.154639 4.96571 0.463918 4.33714C 2.07216 2.70286 5.2268 -1.5346e-05 8.99999 -1.5346e-05C 12.7732 -1.5346e-05 15.9278 2.70286 17.5361 4.33714C 18.1546 4.96571 18.1546 6.03425 17.5361 6.66283C 15.9278 8.29711 12.7732 11 8.99999 11ZM 8.99999 0.942842C 5.41236 0.942842 2.38145 3.77143 1.20619 4.96571C 0.896915 5.28 0.896915 5.65716 1.20619 5.84573C 2.38145 7.04002 5.47422 9.8686 8.99999 9.8686C 12.5258 9.8686 15.6186 7.04002 16.7938 5.84573C 17.1031 5.53144 17.1031 5.15429 16.7938 4.96571C 15.6804 3.77143 12.5876 0.942842 8.99999 0.942842Z" fill="#333333"/>
  <g mask="url(#path-1-inside-1)">
    <path d="M 17.5361 4.33714L 16.8233 5.03855L 17.5361 4.33714ZM 17.5361 6.66283L 16.8233 5.96142L 17.5361 6.66283ZM 1.20619 5.84573L 1.91896 5.14432L 1.83228 5.05625L 1.72677 4.99192L 1.20619 5.84573ZM 16.7938 5.84573L 17.5066 6.54714L 16.7938 5.84573ZM 16.7938 4.96571L 16.0624 5.64762L 16.156 5.74805L 16.2732 5.81953L 16.7938 4.96571ZM 8.99999 9.99998C 5.66776 9.99998 2.76928 7.57981 1.17668 5.96142L -0.248845 7.36423C 1.37505 9.01441 4.78584 12 8.99999 12L 8.99999 9.99998ZM 1.17668 5.96142C 0.941107 5.72203 0.941107 5.27794 1.17668 5.03855L -0.248845 3.63574C -1.25039 4.65349 -1.25039 6.34648 -0.248845 7.36423L 1.17668 5.96142ZM 1.17668 5.03855C 2.76928 3.42016 5.66776 0.999985 8.99999 0.999985L 8.99999 -1.00002C 4.78584 -1.00002 1.37505 1.98556 -0.248845 3.63574L 1.17668 5.03855ZM 8.99999 0.999985C 12.3322 0.999985 15.2307 3.42016 16.8233 5.03855L 18.2488 3.63574C 16.6249 1.98556 13.2141 -1.00002 8.99999 -1.00002L 8.99999 0.999985ZM 16.8233 5.03855C 17.0589 5.27794 17.0589 5.72203 16.8233 5.96142L 18.2488 7.36423C 19.2504 6.34648 19.2504 4.65349 18.2488 3.63574L 16.8233 5.03855ZM 16.8233 5.96142C 15.2307 7.57981 12.3322 9.99998 8.99999 9.99998L 8.99999 12C 13.2141 12 16.6249 9.01441 18.2488 7.36423L 16.8233 5.96142ZM 8.99999 -0.0571582C 6.94657 -0.0571582 5.10465 0.749369 3.66364 1.66145C 2.21669 2.5773 1.10324 3.64463 0.493431 4.26431L 1.91896 5.66712C 2.48441 5.09251 3.47404 4.14841 4.73327 3.35139C 5.99844 2.55061 7.46579 1.94284 8.99999 1.94284L 8.99999 -0.0571582ZM 0.493431 4.26431C 0.207774 4.55459 -0.0257657 4.96627 -0.0257657 5.45286C -0.0257657 5.97852 0.250515 6.43426 0.685612 6.69954L 1.72677 4.99192C 1.77794 5.02311 1.84474 5.08042 1.89769 5.1719C 1.95108 5.26414 1.97423 5.36352 1.97423 5.45286C 1.97423 5.62517 1.89533 5.69112 1.91896 5.66712L 0.493431 4.26431ZM 0.493431 6.54714C 1.10786 7.17151 2.23634 8.23713 3.68901 9.15136C 5.13376 10.0606 6.97575 10.8686 8.99999 10.8686L 8.99999 8.8686C 7.49846 8.8686 6.03118 8.26229 4.75429 7.45868C 3.48532 6.66006 2.47979 5.71424 1.91896 5.14432L 0.493431 6.54714ZM 8.99999 10.8686C 11.0242 10.8686 12.8662 10.0606 14.311 9.15136C 15.7637 8.23713 16.8922 7.17151 17.5066 6.54714L 16.0811 5.14432C 15.5202 5.71423 14.5147 6.66005 13.2457 7.45868C 11.9688 8.26229 10.5015 8.8686 8.99999 8.8686L 8.99999 10.8686ZM 17.5066 6.54714C 17.7922 6.25685 18.0258 5.84517 18.0258 5.35858C 18.0258 4.83292 17.7495 4.37719 17.3144 4.1119L 16.2732 5.81953C 16.2221 5.78833 16.1553 5.73102 16.1023 5.63955C 16.0489 5.5473 16.0258 5.44792 16.0258 5.35858C 16.0258 5.18628 16.1047 5.12032 16.0811 5.14432L 17.5066 6.54714ZM 17.5253 4.28381C 16.9297 3.64495 15.8125 2.57587 14.3574 1.66008C 12.9084 0.748181 11.0518 -0.0571582 8.99999 -0.0571582L 8.99999 1.94284C 10.5358 1.94284 12.0194 2.5518 13.2921 3.35276C 14.5586 4.14983 15.5446 5.0922 16.0624 5.64762L 17.5253 4.28381Z" fill="#333333"/>
  </g>
</g>
<g id="Vector_2" transform="translate(6.75 3.25352)">
  <mask id="path-3-inside-2" fill="white">
    <path d="M 2.47422 5.0286C 1.11339 5.0286 -7.55074e-06 3.89717 -7.55074e-06 2.51432C -7.55074e-06 1.13146 1.11339 3.0692e-05 2.47422 3.0692e-05C 3.83504 3.0692e-05 4.94845 1.13146 4.94845 2.51432C 4.94845 3.89717 3.8969 5.0286 2.47422 5.0286ZM 2.47422 1.00573C 1.6701 1.00573 0.989706 1.69717 0.989706 2.51432C 0.989706 3.33146 1.6701 4.02283 2.47422 4.02283C 3.27834 4.02283 3.95877 3.33146 3.95877 2.51432C 3.95877 1.69717 3.27834 1.00573 2.47422 1.00573Z"/>
  </mask>
  <path d="M 2.47422 5.0286C 1.11339 5.0286 -7.55074e-06 3.89717 -7.55074e-06 2.51432C -7.55074e-06 1.13146 1.11339 3.0692e-05 2.47422 3.0692e-05C 3.83504 3.0692e-05 4.94845 1.13146 4.94845 2.51432C 4.94845 3.89717 3.8969 5.0286 2.47422 5.0286ZM 2.47422 1.00573C 1.6701 1.00573 0.989706 1.69717 0.989706 2.51432C 0.989706 3.33146 1.6701 4.02283 2.47422 4.02283C 3.27834 4.02283 3.95877 3.33146 3.95877 2.51432C 3.95877 1.69717 3.27834 1.00573 2.47422 1.00573Z" fill="#333333"/>
  <g mask="url(#path-3-inside-2)">
    <path d="M 3.95877 2.51432L 2.95877 2.51432L 3.95877 2.51432ZM 2.47422 4.0286C 1.68076 4.0286 0.999992 3.36009 0.999992 2.51432L -1.00001 2.51432C -1.00001 4.43426 0.546029 6.0286 2.47422 6.0286L 2.47422 4.0286ZM 0.999992 2.51432C 0.999992 1.66854 1.68076 1.00003 2.47422 1.00003L 2.47422 -0.999969C 0.546029 -0.999969 -1.00001 0.594377 -1.00001 2.51432L 0.999992 2.51432ZM 2.47422 1.00003C 3.26768 1.00003 3.94845 1.66854 3.94845 2.51432L 5.94845 2.51432C 5.94845 0.594377 4.40241 -0.999969 2.47422 -0.999969L 2.47422 1.00003ZM 3.94845 2.51432C 3.94845 3.37669 3.31335 4.0286 2.47422 4.0286L 2.47422 6.0286C 4.48045 6.0286 5.94845 4.41766 5.94845 2.51432L 3.94845 2.51432ZM 2.47422 0.00572979C 1.1027 0.00572979 -0.0102942 1.16012 -0.0102942 2.51432L 1.98971 2.51432C 1.98971 2.23422 2.23749 2.00573 2.47422 2.00573L 2.47422 0.00572979ZM -0.0102942 2.51432C -0.0102942 3.86858 1.10276 5.02283 2.47422 5.02283L 2.47422 3.02283C 2.23743 3.02283 1.98971 2.79434 1.98971 2.51432L -0.0102942 2.51432ZM 2.47422 5.02283C 3.84564 5.02283 4.95877 3.86861 4.95877 2.51432L 2.95877 2.51432C 2.95877 2.79431 2.71104 3.02283 2.47422 3.02283L 2.47422 5.02283ZM 4.95877 2.51432C 4.95877 1.16009 3.84571 0.00572979 2.47422 0.00572979L 2.47422 2.00573C 2.71098 2.00573 2.95877 2.23426 2.95877 2.51432L 4.95877 2.51432Z" fill="#333333"/>
  </g>
</g>
</svg>
