<svg width="17" height="15" viewBox="0 0 17 15" version="1.1" xmlns="http://www.w3.org/2000/svg" xmlns:xlink="http://www.w3.org/1999/xlink">
<g id="Vector" transform="matrix(0 -1 -1 0 17 15)">
  <mask id="path-1-inside-1" fill="white">
    <path d="M 4.8199 16.2253C 3.23569 16.2253 1.7102 15.3682 0.771405 13.9599C -0.28474 12.3068 -0.284783 10.0414 0.947387 8.38823C 1.88618 7.10245 3.17701 6.30647 4.8199 6.30647C 5.40665 6.30647 6.05207 6.42891 6.58015 6.67382L 8.92714 4.22471L 7.87103 3.12259C 7.28429 2.51031 7.28429 1.65315 7.87103 1.16333L 8.63376 0.367337C 9.10316 -0.122485 10.042 -0.122485 10.5114 0.367337L 11.5675 1.46947L 11.9196 1.10211C 12.389 0.612292 13.3278 0.612292 13.7972 1.10211L 14.56 1.89803C 15.1467 2.51031 15.1467 3.36754 14.56 3.85736L 9.22051 9.42907C 9.86593 11.2659 9.51393 13.3476 8.16441 14.6946C 7.28429 15.7355 6.16942 16.2253 4.8199 16.2253ZM 4.8199 7.2861C 3.58774 7.2861 2.47296 7.89835 1.71019 8.93922C 0.771391 10.225 0.771348 12.0618 1.59279 13.4701C 2.35557 14.6334 3.4704 15.3069 4.76124 15.3069C 5.81739 15.3069 6.75617 14.9395 7.46027 14.1436C 8.57509 12.9803 8.86849 11.0823 8.22307 9.61279C 8.10572 9.4291 8.10569 9.24542 8.34039 9.00051L 13.9732 3.12259C 14.1492 2.9389 14.1492 2.63276 13.9732 2.51031L 13.2104 1.71439C 13.0344 1.53071 12.741 1.53071 12.6237 1.71439L 11.8609 2.51031C 11.6848 2.69399 11.3915 2.69399 11.2155 2.51031L 9.68994 0.918401C 9.51391 0.734718 9.22054 0.734718 9.10319 0.918401L 8.34039 1.71439C 8.16436 1.89807 8.16436 2.20421 8.34039 2.32667L 9.7486 3.79615C 9.86595 3.91861 9.86599 3.97982 9.86599 4.1635C 9.86599 4.34718 9.7486 4.46962 9.7486 4.53085L 6.81486 7.59224C 6.69751 7.77592 6.46281 7.77589 6.22811 7.71467C 5.99341 7.40853 5.40665 7.2861 4.8199 7.2861Z"/>
  </mask>
  <path d="M 4.8199 16.2253C 3.23569 16.2253 1.7102 15.3682 0.771405 13.9599C -0.28474 12.3068 -0.284783 10.0414 0.947387 8.38823C 1.88618 7.10245 3.17701 6.30647 4.8199 6.30647C 5.40665 6.30647 6.05207 6.42891 6.58015 6.67382L 8.92714 4.22471L 7.87103 3.12259C 7.28429 2.51031 7.28429 1.65315 7.87103 1.16333L 8.63376 0.367337C 9.10316 -0.122485 10.042 -0.122485 10.5114 0.367337L 11.5675 1.46947L 11.9196 1.10211C 12.389 0.612292 13.3278 0.612292 13.7972 1.10211L 14.56 1.89803C 15.1467 2.51031 15.1467 3.36754 14.56 3.85736L 9.22051 9.42907C 9.86593 11.2659 9.51393 13.3476 8.16441 14.6946C 7.28429 15.7355 6.16942 16.2253 4.8199 16.2253ZM 4.8199 7.2861C 3.58774 7.2861 2.47296 7.89835 1.71019 8.93922C 0.771391 10.225 0.771348 12.0618 1.59279 13.4701C 2.35557 14.6334 3.4704 15.3069 4.76124 15.3069C 5.81739 15.3069 6.75617 14.9395 7.46027 14.1436C 8.57509 12.9803 8.86849 11.0823 8.22307 9.61279C 8.10572 9.4291 8.10569 9.24542 8.34039 9.00051L 13.9732 3.12259C 14.1492 2.9389 14.1492 2.63276 13.9732 2.51031L 13.2104 1.71439C 13.0344 1.53071 12.741 1.53071 12.6237 1.71439L 11.8609 2.51031C 11.6848 2.69399 11.3915 2.69399 11.2155 2.51031L 9.68994 0.918401C 9.51391 0.734718 9.22054 0.734718 9.10319 0.918401L 8.34039 1.71439C 8.16436 1.89807 8.16436 2.20421 8.34039 2.32667L 9.7486 3.79615C 9.86595 3.91861 9.86599 3.97982 9.86599 4.1635C 9.86599 4.34718 9.7486 4.46962 9.7486 4.53085L 6.81486 7.59224C 6.69751 7.77592 6.46281 7.77589 6.22811 7.71467C 5.99341 7.40853 5.40665 7.2861 4.8199 7.2861Z" fill="#333333"/>
  <g mask="url(#path-1-inside-1)">
    <path d="M 0.771405 13.9599L -0.0712987 14.4983L -0.0660553 14.5065L -0.0606531 14.5146L 0.771405 13.9599ZM 0.947387 8.38823L 1.74921 8.98587L 1.75502 8.97791L 0.947387 8.38823ZM 6.58015 6.67382L 6.15941 7.58101L 6.8077 7.88167L 7.30215 7.36572L 6.58015 6.67382ZM 8.92714 4.22471L 9.64914 4.91661L 10.3122 4.22474L 9.64916 3.53284L 8.92714 4.22471ZM 7.87103 3.12259L 8.59306 2.43072L 8.59303 2.43069L 7.87103 3.12259ZM 7.87103 1.16333L 8.51189 1.93099L 8.55458 1.89535L 8.59307 1.85519L 7.87103 1.16333ZM 8.63376 0.367337L 7.91176 -0.324557L 7.91173 -0.324524L 8.63376 0.367337ZM 10.5114 0.367337L 11.2334 -0.324533L 11.2334 -0.324557L 10.5114 0.367337ZM 11.5675 1.46947L 10.8455 2.16134L 11.5674 2.91472L 12.2894 2.16143L 11.5675 1.46947ZM 11.9196 1.10211L 12.6415 1.79408L 12.6416 1.79401L 11.9196 1.10211ZM 13.7972 1.10211L 13.0752 1.79401L 13.0752 1.79404L 13.7972 1.10211ZM 14.56 1.89803L 15.282 1.20614L 15.2819 1.2061L 14.56 1.89803ZM 14.56 3.85736L 13.9191 3.0897L 13.8764 3.12533L 13.838 3.16546L 14.56 3.85736ZM 9.22051 9.42907L 8.49852 8.73717L 8.07335 9.18083L 8.27706 9.76058L 9.22051 9.42907ZM 8.16441 14.6946L 7.45796 13.9869L 7.42807 14.0167L 7.4008 14.049L 8.16441 14.6946ZM 1.71019 8.93922L 0.903583 8.34812L 0.902552 8.34954L 1.71019 8.93922ZM 1.59279 13.4701L 0.729008 13.9739L 0.742187 13.9965L 0.756528 14.0184L 1.59279 13.4701ZM 7.46027 14.1436L 6.73827 13.4517L 6.72447 13.4661L 6.71126 13.481L 7.46027 14.1436ZM 8.22307 9.61279L 9.13865 9.21064L 9.10749 9.1397L 9.06577 9.07441L 8.22307 9.61279ZM 8.34039 9.00051L 7.61839 8.30861L 8.34039 9.00051ZM 13.9732 3.12259L 14.6952 3.81448L 13.9732 3.12259ZM 13.9732 2.51031L 13.2513 3.20224L 13.3203 3.27424L 13.4021 3.3312L 13.9732 2.51031ZM 13.2104 1.71439L 12.4884 2.40629L 12.4885 2.40632L 13.2104 1.71439ZM 12.6237 1.71439L 13.3456 2.40632L 13.4135 2.33547L 13.4664 2.25277L 12.6237 1.71439ZM 11.8609 2.51031L 11.1389 1.81838L 11.1389 1.81841L 11.8609 2.51031ZM 11.2155 2.51031L 10.4935 3.2022L 11.2155 2.51031ZM 9.68994 0.918401L 10.4119 0.226507L 10.4119 0.226507L 9.68994 0.918401ZM 9.10319 0.918401L 9.82519 1.6103L 9.89307 1.53946L 9.94589 1.45678L 9.10319 0.918401ZM 8.34039 1.71439L 9.06239 2.40629L 8.34039 1.71439ZM 8.34039 2.32667L 9.06239 1.63478L 8.99336 1.56275L 8.91147 1.50577L 8.34039 2.32667ZM 9.7486 3.79615L 9.0266 4.48804L 9.7486 3.79615ZM 9.7486 4.53085L 10.4706 5.22275L 10.7486 4.93265L 10.7486 4.53085L 9.7486 4.53085ZM 6.81486 7.59224L 6.09286 6.90035L 6.02498 6.97118L 5.97216 7.05386L 6.81486 7.59224ZM 6.22811 7.71467L 5.4345 8.32308L 5.64342 8.5956L 5.97568 8.68228L 6.22811 7.71467ZM 4.8199 15.2253C 3.59861 15.2253 2.37322 14.5599 1.60346 13.4053L -0.0606531 14.5146C 1.04718 16.1764 2.87276 17.2253 4.8199 17.2253L 4.8199 15.2253ZM 1.61411 13.4216C 0.769849 12.1001 0.778459 10.2882 1.74917 8.98584L 0.145599 7.79062C -1.34803 9.79455 -1.33933 12.5135 -0.0712987 14.4983L 1.61411 13.4216ZM 1.75502 8.97791C 2.54068 7.90187 3.55153 7.30647 4.8199 7.30647L 4.8199 5.30647C 2.8025 5.30647 1.23169 6.30302 0.139752 7.79855L 1.75502 8.97791ZM 4.8199 7.30647C 5.28437 7.30647 5.78259 7.40624 6.15941 7.58101L 7.00088 5.76664C 6.32156 5.45158 5.52894 5.30647 4.8199 5.30647L 4.8199 7.30647ZM 7.30215 7.36572L 9.64914 4.91661L 8.20514 3.53282L 5.85815 5.98193L 7.30215 7.36572ZM 9.64916 3.53284L 8.59306 2.43072L 7.14901 3.81445L 8.20511 4.91658L 9.64916 3.53284ZM 8.59303 2.43069C 8.46119 2.29311 8.43097 2.16784 8.43097 2.09704C 8.43097 2.03415 8.45166 1.98127 8.51189 1.93099L 7.23018 0.395663C 6.11769 1.32438 6.2385 2.86433 7.14903 3.81448L 8.59303 2.43069ZM 8.59307 1.85519L 9.35579 1.0592L 7.91173 -0.324524L 7.149 0.471467L 8.59307 1.85519ZM 9.35576 1.05923C 9.363 1.05167 9.43136 0.99997 9.57258 0.99997C 9.7138 0.99997 9.78216 1.05167 9.7894 1.05923L 11.2334 -0.324557C 10.7712 -0.806822 10.1355 -1.00003 9.57258 -1.00003C 9.00968 -1.00003 8.37392 -0.806822 7.91176 -0.324557L 9.35576 1.05923ZM 9.78937 1.05921L 10.8455 2.16134L 12.2895 0.777596L 11.2334 -0.324533L 9.78937 1.05921ZM 12.2894 2.16143L 12.6415 1.79408L 11.1977 0.410147L 10.8456 0.777499L 12.2894 2.16143ZM 12.6416 1.79401C 12.6489 1.78644 12.7172 1.73475 12.8584 1.73475C 12.9996 1.73475 13.0679 1.78644 13.0752 1.79401L 14.5192 0.41022C 14.057 -0.072031 13.4213 -0.265252 12.8584 -0.265252C 12.2955 -0.265252 11.6597 -0.072031 11.1976 0.41022L 12.6416 1.79401ZM 13.0752 1.79404L 13.838 2.58996L 15.2819 1.2061L 14.5191 0.410186L 13.0752 1.79404ZM 13.838 2.58992C 13.9698 2.72749 14 2.85277 14 2.92362C 14 2.98654 13.9793 3.03943 13.9191 3.0897L 15.2008 4.62503C 16.3133 3.69631 16.1925 2.15629 15.282 1.20614L 13.838 2.58992ZM 13.838 3.16546L 8.49852 8.73717L 9.9425 10.121L 15.282 4.54926L 13.838 3.16546ZM 8.27706 9.76058C 8.81358 11.2875 8.49724 12.9495 7.45796 13.9869L 8.87086 15.4024C 10.5306 13.7457 10.9183 11.2443 10.164 9.09756L 8.27706 9.76058ZM 7.4008 14.049C 6.71916 14.8551 5.88854 15.2253 4.8199 15.2253L 4.8199 17.2253C 6.45031 17.2253 7.84942 16.6159 8.92802 15.3403L 7.4008 14.049ZM 4.8199 6.2861C 3.23543 6.2861 1.8339 7.07862 0.903584 8.34813L 2.51679 9.53031C 3.11201 8.71808 3.94004 8.2861 4.8199 8.2861L 4.8199 6.2861ZM 0.902552 8.34954C -0.300692 9.99751 -0.265642 12.2688 0.729008 13.9739L 2.45658 12.9662C 1.80834 11.8549 1.84347 10.4525 2.51782 9.5289L 0.902552 8.34954ZM 0.756528 14.0184C 1.67419 15.418 3.08217 16.3069 4.76124 16.3069L 4.76124 14.3069C 3.85863 14.3069 3.03694 13.8489 2.42906 12.9218L 0.756528 14.0184ZM 4.76124 16.3069C 6.06631 16.3069 7.29183 15.8433 8.20928 14.8061L 6.71126 13.481C 6.22051 14.0358 5.56846 14.3069 4.76124 14.3069L 4.76124 16.3069ZM 8.18227 14.8355C 9.59041 13.3661 9.9387 11.0322 9.13865 9.21064L 7.30749 10.0149C 7.79828 11.1323 7.55977 12.5944 6.73827 13.4517L 8.18227 14.8355ZM 9.06577 9.07441C 9.09048 9.11308 9.17025 9.26348 9.13903 9.47539C 9.11168 9.66099 9.02047 9.73614 9.06239 9.6924L 7.61839 8.30861C 7.42561 8.50978 7.21707 8.79923 7.16039 9.18382C 7.09984 9.59473 7.23831 9.92881 7.38036 10.1512L 9.06577 9.07441ZM 9.06239 9.6924L 14.6952 3.81448L 13.2512 2.43069L 7.61839 8.30861L 9.06239 9.6924ZM 14.6952 3.81448C 14.9718 3.52587 15.1052 3.15106 15.1052 2.79349C 15.1052 2.44311 14.9685 1.98448 14.5443 1.68941L 13.4021 3.3312C 13.154 3.15859 13.1052 2.91426 13.1052 2.79349C 13.1052 2.66551 13.1507 2.53562 13.2512 2.43069L 14.6952 3.81448ZM 14.6952 1.81838L 13.9324 1.02246L 12.4885 2.40632L 13.2513 3.20224L 14.6952 1.81838ZM 13.9324 1.0225C 13.6539 0.731839 13.2749 0.576629 12.895 0.576629C 12.5144 0.576629 12.0584 0.741709 11.781 1.17601L 13.4664 2.25277C 13.3063 2.50339 13.0556 2.57663 12.895 2.57663C 12.7352 2.57663 12.5909 2.51326 12.4884 2.40629L 13.9324 1.0225ZM 11.9017 1.02246L 11.1389 1.81838L 12.5828 3.20224L 13.3456 2.40632L 11.9017 1.02246ZM 11.1389 1.81841C 11.3565 1.59129 11.7198 1.59129 11.9375 1.81841L 10.4935 3.2022C 11.0632 3.79669 12.0132 3.79669 12.5829 3.2022L 11.1389 1.81841ZM 11.9375 1.81841L 10.4119 0.226507L 8.96794 1.6103L 10.4935 3.2022L 11.9375 1.81841ZM 10.4119 0.226507C 10.1334 -0.0641516 9.7544 -0.219361 9.37456 -0.219361C 8.99393 -0.219361 8.53795 -0.0542816 8.26049 0.380024L 9.94589 1.45678C 9.78578 1.7074 9.53516 1.78064 9.37456 1.78064C 9.21476 1.78064 9.07045 1.71727 8.96794 1.6103L 10.4119 0.226507ZM 8.38119 0.226507L 7.61839 1.0225L 9.06239 2.40629L 9.82519 1.6103L 8.38119 0.226507ZM 7.61839 1.0225C 7.34181 1.31111 7.20837 1.68591 7.20837 2.04349C 7.20837 2.39387 7.34516 2.85249 7.76931 3.14757L 8.91147 1.50577C 9.1596 1.67839 9.20837 1.92272 9.20837 2.04349C 9.20837 2.17146 9.16294 2.30136 9.06239 2.40629L 7.61839 1.0225ZM 7.61839 3.01856L 9.0266 4.48804L 10.4706 3.10426L 9.06239 1.63478L 7.61839 3.01856ZM 9.0266 4.48804C 9.02958 4.49115 9.00451 4.46589 8.97381 4.41787C 8.93848 4.36258 8.90721 4.29544 8.88685 4.22114C 8.86856 4.15437 8.86595 4.10609 8.86565 4.10063C 8.86548 4.09755 8.86569 4.09982 8.86583 4.11182C 8.86598 4.12428 8.86599 4.13912 8.86599 4.1635L 10.866 4.1635C 10.866 4.11952 10.8738 3.90453 10.8157 3.69259C 10.7399 3.41574 10.5889 3.22768 10.4706 3.10426L 9.0266 4.48804ZM 8.86599 4.1635C 8.86599 4.03805 8.90778 3.95618 8.90554 3.96084C 8.90473 3.96255 8.90298 3.96608 8.8962 3.97928C 8.89193 3.9876 8.87804 4.0144 8.86519 4.04119C 8.85265 4.06735 8.82792 4.12037 8.80559 4.18691C 8.78476 4.24898 8.7486 4.37256 8.7486 4.53085L 10.7486 4.53085C 10.7486 4.67383 10.7161 4.7802 10.7017 4.82314C 10.6858 4.87055 10.6702 4.90252 10.6687 4.90571C 10.6668 4.90955 10.6658 4.91148 10.6753 4.89301C 10.6823 4.87942 10.6952 4.85426 10.709 4.82536C 10.7655 4.70757 10.866 4.47263 10.866 4.1635L 8.86599 4.1635ZM 9.0266 3.83896L 6.09286 6.90035L 7.53686 8.28413L 10.4706 5.22275L 9.0266 3.83896ZM 5.97216 7.05386C 6.02774 6.96686 6.10591 6.89082 6.19869 6.8361C 6.28726 6.78387 6.36716 6.76381 6.41812 6.75621C 6.50481 6.7433 6.5365 6.76165 6.48054 6.74705L 5.97568 8.68228C 6.15442 8.72891 6.42081 8.77789 6.71287 8.73438C 7.03754 8.686 7.41142 8.5159 7.65756 8.13062L 5.97216 7.05386ZM 7.02173 7.10625C 6.71058 6.70039 6.25718 6.51417 5.92225 6.42167C 5.56206 6.32219 5.17424 6.2861 4.8199 6.2861L 4.8199 8.2861C 5.05232 8.2861 5.25125 8.31122 5.3898 8.34949C 5.45749 8.36819 5.49207 8.38494 5.50225 8.39065C 5.51295 8.39666 5.47793 8.37974 5.4345 8.32308L 7.02173 7.10625Z" fill="#333333"/>
  </g>
</g>
<g id="Vector_2" transform="matrix(0 -1 -1 0 7.87305 11.9577)">
  <mask id="path-3-inside-2" fill="white">
    <path d="M 1.87756 3.90325C 1.40817 3.90325 0.938796 3.71957 0.586747 3.29098C 0.234699 2.86238 0 2.43382 0 1.944C 0 1.45417 0.176024 0.964307 0.586747 0.596941C 1.34952 -0.19902 2.58169 -0.19902 3.22711 0.596941C 3.57916 0.964307 3.81386 1.45417 3.81386 1.944C 3.81386 2.43382 3.63783 2.92361 3.22711 3.29098C 2.81639 3.65834 2.34696 3.90325 1.87756 3.90325ZM 1.87756 0.964367C 1.58419 0.964367 1.40818 1.08682 1.23216 1.27051C 1.05613 1.45419 0.938781 1.63786 0.938781 1.944C 0.938781 2.25013 1.05613 2.4338 1.23216 2.61749C 1.5842 2.98485 2.17099 2.98485 2.52304 2.61749C 2.69907 2.4338 2.81642 2.25013 2.81642 1.944C 2.81642 1.63786 2.69907 1.45419 2.52304 1.27051C 2.34702 1.08682 2.17094 0.964367 1.87756 0.964367Z"/>
  </mask>
  <path d="M 1.87756 3.90325C 1.40817 3.90325 0.938796 3.71957 0.586747 3.29098C 0.234699 2.86238 0 2.43382 0 1.944C 0 1.45417 0.176024 0.964307 0.586747 0.596941C 1.34952 -0.19902 2.58169 -0.19902 3.22711 0.596941C 3.57916 0.964307 3.81386 1.45417 3.81386 1.944C 3.81386 2.43382 3.63783 2.92361 3.22711 3.29098C 2.81639 3.65834 2.34696 3.90325 1.87756 3.90325ZM 1.87756 0.964367C 1.58419 0.964367 1.40818 1.08682 1.23216 1.27051C 1.05613 1.45419 0.938781 1.63786 0.938781 1.944C 0.938781 2.25013 1.05613 2.4338 1.23216 2.61749C 1.5842 2.98485 2.17099 2.98485 2.52304 2.61749C 2.69907 2.4338 2.81642 2.25013 2.81642 1.944C 2.81642 1.63786 2.69907 1.45419 2.52304 1.27051C 2.34702 1.08682 2.17094 0.964367 1.87756 0.964367Z" fill="#333333"/>
  <g mask="url(#path-3-inside-2)">
    <path d="M 0.586747 0.596941L 1.25342 1.34229L 1.28211 1.31663L 1.30875 1.28883L 0.586747 0.596941ZM 3.22711 0.596941L 2.45038 1.22677L 2.47646 1.25894L 2.50511 1.28883L 3.22711 0.596941ZM 2.52304 2.61749L 1.80104 1.92559L 2.52304 2.61749ZM 1.87756 2.90325C 1.68208 2.90325 1.50606 2.8347 1.35948 2.65625L -0.185989 3.9257C 0.371531 4.60444 1.13425 4.90325 1.87756 4.90325L 1.87756 2.90325ZM 1.35948 2.65625C 1.06399 2.29651 1 2.09157 1 1.944L -1 1.944C -1 2.77606 -0.594594 3.42826 -0.185989 3.9257L 1.35948 2.65625ZM 1 1.944C 1 1.69819 1.08325 1.4945 1.25342 1.34229L -0.0799238 -0.148411C -0.731199 0.434114 -1 1.21016 -1 1.944L 1 1.944ZM 1.30875 1.28883C 1.71383 0.866126 2.23562 0.961926 2.45038 1.22677L 4.00384 -0.03289C 2.92775 -1.35997 0.985208 -1.26417 -0.135252 -0.0949534L 1.30875 1.28883ZM 2.50511 1.28883C 2.71881 1.51183 2.81386 1.76462 2.81386 1.944L 4.81386 1.944C 4.81386 1.14372 4.43951 0.416781 3.94911 -0.0949534L 2.50511 1.28883ZM 2.81386 1.944C 2.81386 2.18976 2.73064 2.39339 2.56044 2.54562L 3.89378 4.03633C 4.54503 3.45383 4.81386 2.67787 4.81386 1.944L 2.81386 1.944ZM 2.56044 2.54562C 2.24486 2.82789 2.00395 2.90325 1.87756 2.90325L 1.87756 4.90325C 2.68997 4.90325 3.38791 4.4888 3.89378 4.03633L 2.56044 2.54562ZM 1.87756 -0.0356331C 1.20946 -0.0356331 0.789997 0.286595 0.510156 0.578612L 1.95415 1.9624C 1.97992 1.93551 1.99311 1.92413 1.99728 1.92074C 2.00037 1.91823 1.99198 1.92546 1.97344 1.93513C 1.95381 1.94537 1.93114 1.954 1.90847 1.95938C 1.88655 1.96458 1.87459 1.96437 1.87756 1.96437L 1.87756 -0.0356331ZM 0.510156 0.578612C 0.225289 0.875873 -0.0612185 1.29448 -0.0612185 1.944L 1.93878 1.944C 1.93878 1.93195 1.93987 1.9349 1.93696 1.94825C 1.93557 1.95465 1.93351 1.96223 1.93066 1.97053C 1.9278 1.97883 1.92457 1.98658 1.92127 1.99345C 1.9145 2.00759 1.90973 2.01329 1.91302 2.0089C 1.91484 2.00645 1.91872 2.00147 1.92552 1.9936C 1.93238 1.98568 1.94162 1.97548 1.95415 1.9624L 0.510156 0.578612ZM -0.0612185 1.944C -0.0612185 2.59351 0.225289 3.01212 0.510156 3.30938L 1.95415 1.92559C 1.94162 1.91252 1.93238 1.90231 1.92552 1.89439C 1.91872 1.88652 1.91484 1.88154 1.91302 1.8791C 1.90973 1.8747 1.9145 1.8804 1.92127 1.89454C 1.92457 1.90142 1.9278 1.90916 1.93066 1.91746C 1.93351 1.92576 1.93557 1.93334 1.93696 1.93974C 1.93987 1.95309 1.93878 1.95604 1.93878 1.944L -0.0612185 1.944ZM 0.510156 3.30938C 1.25588 4.08755 2.49931 4.08755 3.24504 3.30938L 1.80104 1.92559C 1.84267 1.88215 1.91252 1.88215 1.95415 1.92559L 0.510156 3.30938ZM 3.24504 3.30938C 3.52991 3.01212 3.81642 2.59351 3.81642 1.944L 1.81642 1.944C 1.81642 1.95604 1.81533 1.95309 1.81824 1.93974C 1.81963 1.93334 1.82168 1.92576 1.82454 1.91746C 1.8274 1.90916 1.83063 1.90142 1.83392 1.89454C 1.8407 1.8804 1.84547 1.8747 1.84218 1.8791C 1.84035 1.88154 1.83648 1.88652 1.82967 1.89439C 1.82282 1.90231 1.81357 1.91252 1.80104 1.92559L 3.24504 3.30938ZM 3.81642 1.944C 3.81642 1.29448 3.52991 0.875873 3.24504 0.578612L 1.80104 1.9624C 1.81357 1.97548 1.82282 1.98568 1.82967 1.9936C 1.83648 2.00147 1.84035 2.00645 1.84218 2.0089C 1.84547 2.01329 1.8407 2.00759 1.83392 1.99345C 1.83063 1.98658 1.8274 1.97883 1.82454 1.97053C 1.82168 1.96223 1.81963 1.95465 1.81824 1.94825C 1.81533 1.9349 1.81642 1.93195 1.81642 1.944L 3.81642 1.944ZM 3.24504 0.578612C 2.96512 0.286506 2.54558 -0.0356331 1.87756 -0.0356331L 1.87756 1.96437C 1.88053 1.96437 1.86859 1.96458 1.84669 1.95939C 1.82405 1.95402 1.8014 1.94539 1.78178 1.93516C 1.76326 1.9255 1.75488 1.91828 1.75796 1.92078C 1.76212 1.92417 1.7753 1.93554 1.80104 1.9624L 3.24504 0.578612Z" fill="#333333"/>
  </g>
</g>
</svg>
