<?xml version="1.0" encoding="iso-8859-1"?>
<!-- Generator: Adobe Illustrator 19.0.0, SVG Export Plug-In . SVG Version: 6.00 Build 0)  -->
<svg version="1.1" id="Layer_1" xmlns="http://www.w3.org/2000/svg" xmlns:xlink="http://www.w3.org/1999/xlink" x="0px" y="0px"
	 viewBox="0 0 486.025 486.025" style="enable-background:new 0 0 486.025 486.025;" xml:space="preserve" fill="white">
<g>
	<g>
		<path d="M420.925,85.812c-42-42-97.9-65.1-157.2-65.1c-60.5,0-117,23.8-159.2,67.1c-2.3,2.4-2.3,6.2,0.1,8.5
			c2.4,2.3,6.2,2.3,8.5-0.1c39.9-41,93.4-63.5,150.6-63.5c115.9,0,210.3,94.3,210.3,210.3s-94.4,210.3-210.3,210.3
			s-210.4-94.3-210.4-210.3v-17.8l31.1,31.1c1.2,1.2,2.7,1.8,4.2,1.8s3.1-0.6,4.2-1.8c2.3-2.3,2.3-6.1,0-8.5l-41.3-41.3
			c-2.3-2.3-6.1-2.3-8.5,0l-41.3,41.3c-2.3,2.3-2.3,6.1,0,8.5c1.2,1.2,2.7,1.8,4.2,1.8s3.1-0.6,4.2-1.8l31.1-31.1v17.8
			c0,59.4,23.1,115.2,65.1,157.2s97.8,65.1,157.2,65.1c59.4,0,115.2-23.1,157.2-65.1s65.3-97.8,65.3-157.2
			C486.025,183.612,462.925,127.812,420.925,85.812z"/>
	</g>
</g>
<g>
	<g>
		<path d="M352.725,222.812h-26.7v-38.2c0-34.3-28-62.3-62.3-62.3c-34.4,0-62.3,28-62.3,62.3v38.2h-26.6c-3.3,0-6,2.7-6,6v114.8
			c0,3.3,2.7,6,6,6h177.9c3.3,0,6-2.7,6-6v-114.8C358.725,225.512,356.025,222.812,352.725,222.812z M213.325,184.612
			c0-27.7,22.6-50.3,50.3-50.3s50.3,22.6,50.3,50.3v38.2h-100.6V184.612z M180.725,337.612v-102.8h165.9v102.8H180.725z"/>
	</g>
</g>
</svg>
