<?xml version="1.0" encoding="UTF-8" standalone="no"?>
<!-- Generator: Adobe Illustrator 21.1.0, SVG Export Plug-In . SVG Version: 6.00 Build 0)  -->

<svg
   xmlns:dc="http://purl.org/dc/elements/1.1/"
   xmlns:cc="http://creativecommons.org/ns#"
   xmlns:rdf="http://www.w3.org/1999/02/22-rdf-syntax-ns#"
   xmlns:svg="http://www.w3.org/2000/svg"
   xmlns="http://www.w3.org/2000/svg"
   xmlns:sodipodi="http://sodipodi.sourceforge.net/DTD/sodipodi-0.dtd"
   xmlns:inkscape="http://www.inkscape.org/namespaces/inkscape"
   version="1.1"
   id="Layer_1"
   x="0px"
   y="0px"
   viewBox="0 0 1200 1000"
   style="enable-background:new 0 0 1200 1000;"
   xml:space="preserve"
   sodipodi:docname="logo.svg"
   inkscape:version="0.92.3 (3ce5693, 2018-03-11)"><metadata
   id="metadata175"><rdf:RDF><cc:Work
       rdf:about=""><dc:format>image/svg+xml</dc:format><dc:type
         rdf:resource="http://purl.org/dc/dcmitype/StillImage" /><dc:title /></cc:Work></rdf:RDF></metadata><defs
   id="defs173" /><sodipodi:namedview
   pagecolor="#ffffff"
   bordercolor="#666666"
   borderopacity="1"
   objecttolerance="10"
   gridtolerance="10"
   guidetolerance="10"
   inkscape:pageopacity="0"
   inkscape:pageshadow="2"
   inkscape:window-width="1855"
   inkscape:window-height="1056"
   id="namedview171"
   showgrid="false"
   inkscape:zoom="0.63427478"
   inkscape:cx="582.54485"
   inkscape:cy="366.05315"
   inkscape:window-x="65"
   inkscape:window-y="24"
   inkscape:window-maximized="1"
   inkscape:current-layer="g82" />
<style
   type="text/css"
   id="style132">
	.st0{fill:#3FA9F5;}
	.st1{fill:#9B9B9B;}
</style>
<g
   id="g82"
   transform="matrix(3.480732,0,0,3.2472636,117.01018,28.363296)"><g
     id="g168"
     transform="matrix(0.71754584,0,0,0.73922813,38.735459,37.872184)">
	<g
   transform="translate(-462.86845,-297.56274)"
   id="g146">
		<path
   style="fill:#3fa9f5"
   inkscape:connector-curvature="0"
   id="path134"
   d="m 649.2,308.4 c -31,-11.6 -67.1,-16.2 -98,-2 -30.8,14 -47.8,51.5 -38.6,83.9 9.3,35.1 35.4,62.7 62.7,85.2 2.8,2.1 4.5,4.9 5.7,8.1 v 0.2 c 0.3,1.6 0.9,3.1 1.7,4.5 v 0 c 1.6,3.3 4.3,5.9 7.6,7.6 2.4,1.3 5.3,2 8.2,2 9.8,0 17.8,-7.9 17.8,-17.8 0,-9.9 -7.9,-17.8 -17.8,-17.8 -1.9,0 -3.7,0.3 -5.3,0.8 -0.1,0 -0.1,0 -0.1,0 -0.4,-0.1 -0.7,-0.1 -1,-0.2 -23.7,-21.7 -43.2,-49 -52.5,-80 -6.1,-19.6 -2.7,-44.2 15.4,-56.2 25.7,-16.8 59,-18.5 88.3,-12.2 36.6,8.6 64.9,35.5 85.8,65.5 -13.2,-35.1 -46.2,-58.3 -79.9,-71.6 z M 598,467.7 c 7,0 12.7,5.7 12.7,12.6 0,7 -5.7,12.7 -12.7,12.7 -7,0 -12.6,-5.7 -12.6,-12.7 -0.1,-7 5.6,-12.6 12.6,-12.6 z"
   class="st0" />
		<path
   style="fill:#3fa9f5"
   inkscape:connector-curvature="0"
   id="path136"
   d="m 588.5,496.4 c -1.4,-2.2 -3.2,-4 -5.4,-5.3 -2.7,-1.8 -6,-2.8 -9.5,-2.8 -2.1,0 -4.2,0.4 -6.1,1.1 -30,-29.6 -60,-63.5 -68,-106.3 -4.7,-21.7 3.7,-43.3 16.5,-60.4 -18.4,11.2 -34.4,29.4 -34.8,52 -1.2,36.4 20.3,68.4 41.5,96.3 10.2,14.2 24.5,25.4 33.7,40.2 0.7,2.4 1.9,4.7 3.5,6.5 1.2,1.4 2.6,2.6 4.2,3.5 2.7,1.7 5.9,2.7 9.3,2.7 9.8,0 17.8,-7.9 17.8,-17.8 0.2,-3.5 -0.9,-6.9 -2.7,-9.7 z m -15.1,22.8 c -7,0 -12.7,-5.7 -12.7,-12.6 0,-7 5.7,-12.7 12.7,-12.7 7,0 12.6,5.7 12.6,12.7 0.1,7 -5.6,12.6 -12.6,12.6 z"
   class="st0" />
		<path
   style="fill:#3fa9f5"
   inkscape:connector-curvature="0"
   id="path138"
   d="m 564.2,523.8 c -1.3,-2.2 -3.2,-4.2 -5.3,-5.6 -2.8,-1.9 -6.2,-3 -9.9,-3 -1,0 -1.9,0.1 -2.8,0.2 -1.8,-0.7 -3.5,-1.7 -5,-3 -40.8,-34.8 -72.7,-84.4 -72.6,-139.5 -8.2,21.9 -8.7,46.5 -1.2,68.8 11.6,35.1 36.7,63.7 63.8,88 0,0.6 0,1.2 0.1,1.8 v 0.2 c -0.1,0.5 -0.1,1 -0.1,1.4 0,9.8 7.9,17.8 17.8,17.8 6.7,0 12.6,-3.7 15.6,-9.2 1.4,-2.6 2.2,-5.5 2.2,-8.6 0,-3.4 -1,-6.6 -2.6,-9.3 z m -14.4,22.5 c -7,0 -12.6,-5.7 -12.6,-12.6 0,-7 5.7,-12.7 12.6,-12.7 7,0 12.7,5.7 12.7,12.7 0,6.9 -5.6,12.6 -12.7,12.6 z"
   class="st0" />
		<path
   style="fill:#9b9b9b"
   inkscape:connector-curvature="0"
   id="path140"
   d="m 704.8,456.8 c -14.6,-29.9 -37.8,-53.6 -59.4,-78.4 0,-0.3 0,-0.6 0,-0.9 0,-3.7 -1.1,-7.1 -3,-9.9 -2.1,-3.2 -5.2,-5.7 -8.9,-6.9 -1.8,-0.6 -3.8,-1 -5.9,-1 -9,0 -16.4,6.6 -17.6,15.3 -0.1,0.3 -0.1,0.6 -0.1,0.9 0,0.4 -0.1,0.8 -0.1,1.3 v 0.4 c 0,2.7 0.6,5.2 1.7,7.5 1.3,2.8 3.3,5.3 5.9,7 2.9,2 6.4,3.2 10.2,3.2 h 0.4 c 1.8,0.4 3.5,0.8 5.3,1.1 29.7,30 60.2,63.9 67.5,107 4.3,20.7 -3.8,41 -14.9,58 12.6,-8.5 24.7,-19.3 29.4,-34.3 8.1,-23.5 0.5,-49 -10.5,-70.3 z m -77,-66.5 c -7,0 -12.6,-5.7 -12.6,-12.6 0,-7 5.7,-12.7 12.6,-12.7 7,0 12.7,5.7 12.7,12.7 -0.1,6.9 -5.7,12.6 -12.7,12.6 z"
   class="st1" />
		<path
   style="fill:#9b9b9b"
   inkscape:connector-curvature="0"
   id="path142"
   d="m 736.4,459.5 c -6.1,-32.9 -26,-61.5 -48.8,-85.3 -5.4,-6 -12.9,-10.8 -17.4,-17.4 v 0 c 0.5,-1.7 0.8,-3.4 0.8,-5.3 0,-9.9 -7.9,-17.8 -17.8,-17.8 -4.7,0 -8.8,1.7 -12,4.7 v 0 c -3.6,3.2 -5.8,7.9 -5.8,13.1 0,7 4.1,13 9.9,15.9 2.4,1.2 5,1.9 7.9,1.9 h 0.4 c 0.7,0.3 1.3,0.7 2,1.2 43.4,34.5 74.8,86.2 77.1,142.5 4.1,-17.5 7.2,-35.7 3.7,-53.5 z m -83.3,-95.6 c -7,0 -12.6,-5.7 -12.6,-12.6 0,-7 5.7,-12.7 12.6,-12.7 7,0 12.7,5.7 12.7,12.7 0,6.9 -5.7,12.6 -12.7,12.6 z"
   class="st1" />
		<path
   style="fill:#9b9b9b"
   inkscape:connector-curvature="0"
   id="path144"
   d="m 687.7,494.2 c -10.1,-35.9 -37.4,-63.5 -65.4,-86.7 -0.2,-0.4 -0.4,-0.8 -0.5,-1.2 0,0 0,0 0,-0.1 -0.1,-5.5 -2.7,-10.3 -6.7,-13.5 v 0 c -2.6,-2 -5.8,-3.4 -9.3,-3.8 -0.4,0 -0.8,0 -1.3,0 -0.2,0 -0.4,0 -0.5,0 -2,0 -3.9,0.3 -5.7,1 -0.1,0 -0.2,0 -0.2,0 -6.4,2.2 -11.1,8 -11.8,15 v 0.3 c 0,0.5 -0.1,1 -0.1,1.6 0,9.8 7.9,17.8 17.8,17.8 1.6,0 3.2,-0.2 4.7,-0.6 3,1.3 5.7,3 7.6,5.5 22.3,24 42.6,52.7 47.4,85.9 2.9,18.2 -6,37.8 -22.3,46.7 -23.9,13.4 -52.9,14.6 -79.5,10.3 -39.4,-7.6 -70.6,-36.6 -91.8,-69.4 14.2,37.1 48.8,62.4 85,75.5 32,11.2 69.8,15 100.4,-2.5 27.7,-15.9 40.7,-51.3 32.2,-81.8 z m -83.6,-74.9 c -7,0 -12.7,-5.7 -12.7,-12.7 0,-7 5.7,-12.7 12.7,-12.7 7,0 12.6,5.7 12.6,12.7 0,7 -5.7,12.7 -12.6,12.7 z"
   class="st1" />
	</g>
	
</g></g>
</svg>