<svg width="16" height="13" viewBox="0 0 16 13" version="1.1" xmlns="http://www.w3.org/2000/svg" xmlns:xlink="http://www.w3.org/1999/xlink">
  <g id="Group_5">
    <path id="Vector" d="M 13.2607 12.0155L 2.67701 12.0155C 1.18285 12.0155 1.51994e-05 10.8327 1.51994e-05 9.33851L 1.51994e-05 2.67703C 1.51994e-05 1.18286 1.18285 -7.59971e-06 2.67701 -7.59971e-06L 13.323 -7.59971e-06C 14.8172 -7.59971e-06 16 1.18286 16 2.67703L 16 9.33851C 16 10.7704 14.7548 12.0155 13.2607 12.0155ZM 2.73933 1.05837C 1.86773 1.05837 1.05835 1.86771 1.05835 2.73931L 1.05835 9.40079C 1.05835 10.2724 1.86773 11.0817 2.73933 11.0817L 13.3852 11.0817C 14.2568 11.0817 15.0661 10.2724 15.0661 9.40079L 15.0661 2.73931C 15.0661 1.86771 14.2568 1.05837 13.3852 1.05837L 2.73933 1.05837Z" fill="#333333"/>
  </g>
  <g id="Group_6">
    <path id="Vector_2" d="M 15.5642 0.871588L 9.40081 4.48248C 9.02727 4.79376 8.40464 4.85604 7.78207 4.85604C 7.1595 4.85604 6.66146 4.7315 6.16341 4.48248L -3.03988e-05 0.871588L 0.498055 1.51994e-05L 6.66149 3.6109C 7.28406 3.92219 8.28019 3.92219 8.77824 3.6109L 14.9416 1.51994e-05L 15.5642 0.871588Z" transform="translate(0.187012 2.55261)" fill="#333333"/>
  </g>
</svg>
