<?xml version="1.0" encoding="utf-8"?>
<!-- Generator: Adobe Illustrator 21.0.0, SVG Export Plug-In . SVG Version: 6.00 Build 0)  -->
<svg version="1.1" id="Layer_1" xmlns="http://www.w3.org/2000/svg" xmlns:xlink="http://www.w3.org/1999/xlink" x="0px" y="0px"
	 viewBox="0 0 2496.5 1056.4" style="enable-background:new 0 0 2496.5 1056.4;" xml:space="preserve">
<style type="text/css">
	.st0{fill:#29A4EF;}
	.st1{fill:#879299;}
</style>
<g>
	<g>
		<g>
			<path class="st0" d="M820.7,813.8c-7.2,0-13-5.8-13-13V255.5c0-7.2,5.8-13,13-13c7.2,0,13,5.8,13,13v545.3
				C833.7,808,827.8,813.8,820.7,813.8z"/>
		</g>
	</g>
	<path class="st0" d="M546.4,292.2c-54.2-20.3-117.3-28.4-171.3-3.6c-53.8,24.4-83.5,89.9-67.5,146.6
		c16.2,61.4,61.8,109.5,109.6,148.9c4.9,3.6,7.9,8.6,10,14.1v0.4c0.6,2.8,1.6,5.5,2.9,7.9v0.1c2.8,5.7,7.6,10.4,13.2,13.3
		c4.3,2.2,9.2,3.5,14.4,3.5c17.2,0,31-13.9,31-31c0-17.2-13.9-31.1-31-31.1c-3.3,0-6.4,0.5-9.2,1.4c-0.1,0-0.1,0-0.1,0
		c-0.6-0.1-1.2-0.2-1.8-0.3c-41.4-37.8-75.6-85.6-91.7-139.8c-10.7-34.2-4.8-77.2,26.9-98.3C426.8,294.9,485,292,536.2,303
		c63.9,15,113.5,62,149.9,114.5C663.1,356.1,605.4,315.5,546.4,292.2z M456.9,570.5c12.3,0,22.1,9.9,22.1,22.1
		c0,12.3-9.9,22.1-22.1,22.1c-12.2,0-22.1-9.9-22.1-22.1C434.9,580.4,444.7,570.5,456.9,570.5z"/>
	<path class="st0" d="M440.3,624c-2.4-3.8-5.6-6.9-9.5-9.3c-4.8-3.1-10.4-4.8-16.5-4.8c-3.7,0-7.3,0.6-10.6,1.9
		c-52.4-51.7-104.9-111-118.8-185.7c-8.1-37.8,6.4-75.6,28.9-105.6c-32.1,19.6-60.1,51.4-60.8,90.8c-2.1,63.6,35.5,119.6,72.5,168.2
		c17.9,24.8,42.8,44.4,58.9,70.3c1.2,4.3,3.4,8.1,6.2,11.4c2.1,2.5,4.6,4.5,7.3,6.1c4.8,3,10.3,4.7,16.3,4.7
		c17.2,0,31.1-13.9,31.1-31C445.4,634.7,443.5,628.9,440.3,624z M414,663.8c-12.2,0-22.1-9.9-22.1-22.1c0-12.3,10-22.1,22.1-22.1
		c12.2,0,22.1,9.9,22.1,22.1C436.1,653.9,426.2,663.8,414,663.8z"/>
	<path class="st0" d="M396.8,672.8c-2.3-3.9-5.5-7.3-9.3-9.7c-4.9-3.4-10.9-5.3-17.2-5.3c-1.7,0-3.3,0.1-4.8,0.4
		c-3.2-1.3-6.2-2.9-8.8-5.3c-71.3-60.8-127-147.5-126.9-243.8c-14.4,38.3-15.1,81.3-2,120.1c20.3,61.4,64.2,111.2,111.4,153.8
		c0,1.1,0.1,2.1,0.2,3.2v0.3c-0.1,0.8-0.1,1.7-0.1,2.5c0,17.2,13.9,31.1,31,31.1c11.8,0,22-6.5,27.2-16.1c2.5-4.5,3.9-9.6,3.9-15
		C401.3,683,399.6,677.5,396.8,672.8z M371.7,712.1c-12.2,0-22.1-9.9-22.1-22.1c0-12.3,9.9-22.1,22.1-22.1
		c12.3,0,22.1,9.9,22.1,22.1C393.8,702.2,383.9,712.1,371.7,712.1z"/>
	<path class="st1" d="M643.6,554.8c-25.4-52.2-66-93.7-103.7-137c0.1-0.5,0.1-1,0.1-1.5c0-6.4-2-12.4-5.3-17.3
		c-3.6-5.5-9.1-9.9-15.6-12.1c-3.2-1.1-6.7-1.8-10.2-1.8c-15.7,0-28.7,11.6-30.8,26.7c-0.1,0.6-0.2,1.1-0.2,1.5
		c-0.1,0.8-0.1,1.5-0.1,2.2v0.6c0,4.7,1.1,9.1,2.9,13.1c2.2,5,5.8,9.2,10.3,12.3c5,3.6,11.2,5.7,17.9,5.7h0.6
		c3.1,0.7,6.1,1.3,9.2,1.9c51.9,52.4,105.1,111.7,118,186.9c7.4,36.2-6.7,71.6-26,101.4c22-14.9,43.1-33.8,51.4-59.9
		C676.2,636.6,662.8,591.9,643.6,554.8z M509,438.6c-12.2,0-22.1-9.9-22.1-22.1s9.9-22.1,22.1-22.1c12.3,0,22.1,10,22.1,22.1
		S521.3,438.6,509,438.6z"/>
	<path class="st1" d="M701.2,559.5c-10.7-57.5-45.4-107.5-85.3-149.1c-9.4-10.4-22.5-18.9-30.3-30.3V380c0.9-2.9,1.4-6,1.4-9.3
		c0-17.2-13.9-31.1-31-31.1c-8.1,0-15.4,3-21,8.2h-0.1c-6.2,5.7-10.1,13.8-10.1,22.9c0,12.2,7.1,22.8,17.4,27.8
		c4.1,2.1,8.8,3.3,13.7,3.3h0.6c1.2,0.6,2.3,1.3,3.4,2.1c75.9,60.2,130.6,150.6,134.7,249C701.8,622.4,707.3,590.6,701.2,559.5z
		 M555.6,392.4c-12.2,0-22.1-9.9-22.1-22.1c0-12.3,9.9-22.1,22.1-22.1c12.3,0,22.1,9.9,22.1,22.1
		C577.7,382.6,567.9,392.4,555.6,392.4z"/>
	<path class="st1" d="M613.6,620.2c-17.7-62.8-65.4-111-114.3-151.5c-0.3-0.7-0.6-1.4-0.9-2.1c0-0.1,0-0.1,0-0.1
		c-0.2-9.6-4.7-18.1-11.6-23.6v-0.1c-4.6-3.6-10.2-6-16.3-6.7c-0.7-0.1-1.5-0.1-2.2-0.1c-0.3-0.1-0.6-0.1-0.9-0.1
		c-3.5,0-6.9,0.6-10,1.7c-0.1,0-0.3,0-0.4,0.1c-11.2,3.9-19.4,13.9-20.7,26.1v0.5c-0.1,0.9-0.1,1.8-0.1,2.7c0,17.2,13.9,31,31.1,31
		c2.8,0,5.5-0.4,8.1-1.1c5.2,2.2,9.9,5.2,13.2,9.7c39,42,74.4,92.1,82.8,150.1c5.1,31.8-10.4,66.1-39,81.7
		c-41.8,23.4-92.5,25.4-138.9,18.1c-68.9-13.3-123.3-63.9-160.4-121.2c24.7,64.8,85.2,109.1,148.6,131.9
		c55.9,19.6,122,26.1,175.4-4.3C605.8,735.2,628.6,673.4,613.6,620.2z M467.6,489.2c-12.3,0-22.1-10-22.1-22.1s9.9-22.1,22.1-22.1
		c12.2,0,22.1,10,22.1,22.1S479.8,489.2,467.6,489.2z"/>
	<path class="st0" d="M1011.8,360h80.2c39,0,67.6,9.1,85.9,27.4c18.3,18.3,27.4,45.7,27.4,82.3c0,73.2-37.8,109.7-113.3,109.7h-84.9
		v93.2c0,9.7-1.6,16-4.7,19.1c-3.1,3.1-9.5,4.7-19.2,4.7h-6.7c-9.7,0-16-1.6-19.1-4.7c-3.1-3.1-4.7-9.5-4.7-19.1V419
		c0-20.7,4.7-35.7,14-45C976,364.6,991.1,360,1011.8,360z M1092,411.2h-64.7c-13.5,0-20.2,6.6-20.2,19.7v97.3h84.9
		c21.7,0,37-4.5,45.8-13.5c8.8-9,13.2-24,13.2-45c0-21-4.5-36.1-13.5-45C1128.6,415.7,1113.4,411.2,1092,411.2z"/>
	<path class="st0" d="M1281.9,383.8c-6.6-6.6-9.8-14.3-9.8-23.3c0-9,3.3-16.6,9.8-22.8c6.6-6.6,14.3-9.8,23.3-9.8
		c9,0,16.6,3.3,22.8,9.8c6.6,6.2,9.8,13.8,9.8,22.8c0,9-3.3,16.7-9.8,23.3c-6.2,6.2-13.8,9.3-22.8,9.3
		C1296.2,393.1,1288.5,390,1281.9,383.8z M1278.3,673.1V463c0-9.3,1.6-15.5,4.7-18.6c3.1-3.1,9.3-4.7,18.6-4.7h6.7
		c9.3,0,15.5,1.6,18.6,4.7s4.7,9.3,4.7,18.6v210.1c0,9.3-1.6,15.5-4.7,18.6s-9.3,4.7-18.6,4.7h-6.7c-9.3,0-15.5-1.6-18.6-4.7
		C1279.9,688.6,1278.3,682.4,1278.3,673.1z"/>
	<path class="st0" d="M1423.2,383.8c-6.6-6.6-9.8-14.3-9.8-23.3c0-9,3.3-16.6,9.8-22.8c6.6-6.6,14.3-9.8,23.3-9.8
		c9,0,16.6,3.3,22.8,9.8c6.6,6.2,9.8,13.8,9.8,22.8c0,9-3.3,16.7-9.8,23.3c-6.2,6.2-13.8,9.3-22.8,9.3
		C1437.5,393.1,1429.8,390,1423.2,383.8z M1419.6,673.1V463c0-9.3,1.6-15.5,4.7-18.6c3.1-3.1,9.3-4.7,18.6-4.7h6.7
		c9.3,0,15.5,1.6,18.6,4.7s4.7,9.3,4.7,18.6v210.1c0,9.3-1.6,15.5-4.7,18.6s-9.3,4.7-18.6,4.7h-6.7c-9.3,0-15.5-1.6-18.6-4.7
		C1421.1,688.6,1419.6,682.4,1419.6,673.1z"/>
	<path class="st0" d="M1556.7,776.6V544.2c0-36.2,10.1-63.7,30.3-82.3c20.2-18.6,49.4-27.9,87.7-27.9c40,0,69.8,9,89.3,26.9
		c19.5,17.9,29.2,45.7,29.2,83.3v45c0,75.2-35.9,112.8-107.7,112.8c-36.6,0-61.9-11.2-76.1-33.6v108.2c0,9.3-1.6,15.5-4.7,18.6
		c-3.1,3.1-9.3,4.7-18.6,4.7h-6.2c-9.3,0-15.5-1.6-18.6-4.7C1558.3,792.2,1556.7,785.9,1556.7,776.6z M1740,590.3v-44.5
		c0-22.8-4.7-38.8-14-48.1c-9.3-9.3-26.2-14-50.7-14c-24.5,0-41.6,4.7-51.2,14c-9.7,9.3-14.5,25.4-14.5,48.1v44.5
		c0,22.4,4.8,38.3,14.5,47.6c9.7,9.3,26.7,14,51.2,14c24.5,0,41.4-4.6,50.7-13.7C1735.3,629,1740,613.1,1740,590.3z"/>
	<path class="st1" d="M2086.7,442.3l63.7,231.4c2.4,9,2.5,15,0.3,18.1c-2.2,3.1-8.2,4.7-17.9,4.7h-7.2c-9.3,0-16-1.5-19.9-4.4
		c-4-2.9-7.3-9.1-10.1-18.4l-19.1-70.4h-145.4l-19.1,70.4c-2.8,9.3-6.1,15.4-10.1,18.4c-4,2.9-10.6,4.4-19.9,4.4h-7.2
		c-9.7,0-15.6-1.6-17.9-4.7c-2.2-3.1-2.2-9.1,0.3-18.1l63.7-231.4c9.3-33.5,19.1-56.2,29.5-68.3c10.7-12.4,28.6-18.6,53.8-18.6
		c25.2,0,43,6.2,53.3,18.6C2067.6,386,2077.4,408.8,2086.7,442.3z M1974.4,441.2l-30.5,112.8h119.6l-30.5-112.8
		c-4.1-15.9-7.9-26-11.4-30.5c-3.5-4.5-9.3-6.7-17.6-6.7c-8.3,0-14.2,2.3-17.9,7C1982.4,415.6,1978.6,425.7,1974.4,441.2z"/>
	<path class="st1" d="M2222.3,383.8c-6.6-6.6-9.8-14.3-9.8-23.3c0-9,3.3-16.6,9.8-22.8c6.6-6.6,14.3-9.8,23.3-9.8
		c9,0,16.6,3.3,22.8,9.8c6.6,6.2,9.8,13.8,9.8,22.8c0,9-3.3,16.7-9.8,23.3c-6.2,6.2-13.8,9.3-22.8,9.3
		C2236.6,393.1,2228.9,390,2222.3,383.8z M2218.7,673.1V463c0-9.3,1.6-15.5,4.7-18.6c3.1-3.1,9.3-4.7,18.6-4.7h6.7
		c9.3,0,15.5,1.6,18.6,4.7c3.1,3.1,4.7,9.3,4.7,18.6v210.1c0,9.3-1.6,15.5-4.7,18.6c-3.1,3.1-9.3,4.7-18.6,4.7h-6.7
		c-9.3,0-15.5-1.6-18.6-4.7C2220.3,688.6,2218.7,682.4,2218.7,673.1z"/>
</g>
</svg>
